<svg id="Capa_1" enable-background="new 0 0 511.975 511.975" height="512" viewBox="0 0 511.975 511.975" width="512" xmlns="http://www.w3.org/2000/svg"><g><path d="m511.975 255.988c0 87.128-43.528 164.088-110.023 210.33h-15.943c-11.97 0-21.667 9.697-21.667 21.667-32.91 15.39-69.629 23.991-108.354 23.991s-75.445-8.601-108.355-23.991c0-11.888-9.605-21.544-21.503-21.595l-16.107-.072c-66.495-46.242-110.023-123.202-110.023-210.33 0-45.617 11.929-88.449 32.848-125.536 43.897-77.862 127.38-130.452 223.14-130.452 95.586 0 178.925 52.385 222.894 130.011.021.041.051.092.082.133 21.011 37.159 33.011 80.104 33.011 125.844z" fill="#ffe706"/><g><path d="m511.975 255.988c0 87.128-43.528 164.088-110.023 210.33h-15.943c-11.97 0-21.667 9.697-21.667 21.667-32.91 15.39-69.629 23.991-108.354 23.991s-75.445-8.601-108.355-23.991c0-11.888-9.605-21.544-21.503-21.595l-16.107-.072c-66.495-46.242-110.023-123.202-110.023-210.33 0-45.617 11.929-88.449 32.848-125.536.225-.389.461-.778.686-1.177.051-.102.103-.205.154-.256 25.394 44.388 63.69 80.431 109.819 103.009 5.222 2.56 10.597 4.966 16.024 7.168 29.03 11.827 60.721 18.482 93.896 18.79h5.12c33.176-.307 64.868-6.963 93.896-18.79 5.427-2.202 10.803-4.608 16.025-7.168 46.078-22.578 84.425-58.621 109.819-103.009.052.051.102.154.154.256.143.246.287.492.44.737.021.041.051.092.082.133 21.012 37.158 33.012 80.103 33.012 125.843z" fill="#ffbf03"/></g><g><path d="m255.988 268.275h-139.647v-81.578c0-27.811 22.547-50.358 50.358-50.358 5.939 0 11.622 1.024 16.916 2.908 7.557-18.267 25.548-31.128 46.549-31.128 9.44 0 18.277 2.591 25.824 7.116l18.421 37.098c19.179 38.624 11.785 85.162-18.421 115.942z" fill="#56c126"/><path d="m395.636 194.299v73.972h-139.648v-153.031c8.693 5.195 15.682 12.946 19.946 22.212 6.201-2.731 13.059-4.253 20.27-4.253 18.555 0 34.766 10.044 43.504 24.983 4.974-2.248 10.487-3.509 16.301-3.509 21.884 0 39.627 17.743 39.627 39.626z" fill="#06995a"/><path d="m255.988 268.275h-109.972v-64.243c0-21.902 17.755-39.658 39.657-39.658 4.669 0 9.155.809 13.322 2.294 5.949-14.397 20.11-24.524 36.657-24.524 7.434 0 14.387 2.048 20.336 5.611l12.718 20.786c19.639 32.112 14.355 73.572-12.718 99.734z" fill="#ace334"/><path d="m365.964 210.015v58.255h-109.976v-120.513c6.847 4.088 12.349 10.192 15.71 17.494 4.883-2.152 10.283-3.35 15.961-3.35 14.615 0 27.379 7.91 34.26 19.674 3.918-1.771 8.256-2.765 12.838-2.765 17.233-.001 31.207 13.973 31.207 31.205z" fill="#56c126"/><g><g><path d="m165.317 437.913-17.684 50.071c-13.188-6.174-25.762-13.434-37.61-21.667l15.053-42.617z" fill="#243047"/><path d="m401.952 466.317c-11.847 8.233-24.421 15.492-37.61 21.667l-17.684-50.071 40.232-14.212z" fill="#1b2535"/></g><path d="m255.988 493.268c-94.039 0-170.262-76.223-170.262-170.262 0-39.781 13.639-76.366 36.503-105.354h60.874l6.645 10.741c49.078 79.253 72.23 171.839 66.24 264.875z" fill="#303b5a"/><path d="m288.119 456.805-32.132 36.463c-51.238 0-92.769-76.223-92.769-170.262 0-39.781 7.434-76.366 19.885-105.354h72.885l20.643 19.005c63.045 58.046 68.154 155.844 11.488 220.148z" fill="#243047"/><path d="m426.251 323.005c0 94.038-76.232 170.263-170.263 170.263v-275.616h133.754c22.865 28.985 36.509 65.574 36.509 105.353z" fill="#1b2535"/><path d="m166.918 226.525-15.57 14.02h-92.67v-53.85h92.67l14 10.17c9.84 7.14 10.6 21.52 1.57 29.66z" fill="#384c81"/><path d="m262.766 190.014-6.779-3.317h-104.637v53.849h104.637l6.779-3.318c19.64-9.614 19.64-37.598 0-47.214z" fill="#303b5a"/><path d="m255.988 186.696h197.301v53.855h-197.301z" fill="#243047"/></g><path d="m288.956 236.389c-7.381 0-13.364-5.983-13.364-13.364v-45.294h26.728v45.294c0 7.381-5.984 13.364-13.364 13.364z" fill="#56c126"/><path d="m213.203 214.696c-7.381 0-13.363-5.984-13.363-13.364v-23.6h26.728v23.6c-.001 7.38-5.984 13.364-13.365 13.364z" fill="#ace334"/></g></g></svg>